<svg width="133" height="49" viewBox="0 0 133 49" fill="none" xmlns="http://www.w3.org/2000/svg">
<rect x="1" y="1" width="130.75" height="46.312" rx="14" stroke="#24445A" stroke-width="2"/>
<path d="M30.4282 24.8884C30.4544 22.8472 31.5463 20.9158 33.2785 19.8467C32.1858 18.2799 30.3554 17.2865 28.4511 17.2267C26.42 17.0127 24.4509 18.4468 23.4159 18.4468C22.3608 18.4468 20.7673 17.248 19.0513 17.2834C16.8145 17.3559 14.7293 18.6326 13.6411 20.5957C11.3019 24.6616 13.0467 30.637 15.2875 33.9235C16.4086 35.5329 17.7189 37.3305 19.4334 37.2668C21.1111 37.1969 21.7377 36.1928 23.7628 36.1928C25.7691 36.1928 26.357 37.2668 28.1063 37.2262C29.9065 37.1969 31.0408 35.6098 32.1225 33.9852C32.9281 32.8385 33.5479 31.5712 33.9591 30.2301C31.8435 29.3318 30.4307 27.1944 30.4282 24.8884Z" fill="#24445A"/>
<path d="M27.1241 15.0653C28.1057 13.8824 28.5893 12.3619 28.4722 10.8268C26.9726 10.9849 25.5873 11.7044 24.5925 12.842C23.6197 13.9535 23.1134 15.4472 23.2091 16.9236C24.7093 16.9391 26.1841 16.2391 27.1241 15.0653Z" fill="#24445A"/>
<path d="M85.1446 23.3615V25.5475H83.7674V26.9811H85.1446V31.8519C85.1446 33.5152 85.9009 34.1805 87.8035 34.1805C88.1378 34.1805 88.4562 34.1409 88.7349 34.0934V32.6756C88.496 32.6994 88.3448 32.7152 88.0821 32.7152C87.2303 32.7152 86.8562 32.3192 86.8562 31.4163V26.9811H88.7349V25.5475H86.8562V23.3615H85.1446Z" fill="#24445A"/>
<path d="M93.5816 34.2993C96.1131 34.2993 97.6654 32.6123 97.6654 29.8165C97.6654 27.0365 96.1051 25.3416 93.5816 25.3416C91.0501 25.3416 89.4899 27.0365 89.4899 29.8165C89.4899 32.6123 91.0422 34.2993 93.5816 34.2993ZM93.5816 32.7865C92.093 32.7865 91.2571 31.7015 91.2571 29.8165C91.2571 27.9473 92.093 26.8543 93.5816 26.8543C95.0623 26.8543 95.9061 27.9473 95.9061 29.8165C95.9061 31.6935 95.0623 32.7865 93.5816 32.7865Z" fill="#24445A"/>
<path d="M98.9936 34.133H100.705V29.0403C100.705 27.8285 101.621 27.0127 102.918 27.0127C103.221 27.0127 103.73 27.0682 103.873 27.1157V25.4366C103.69 25.3891 103.364 25.3653 103.109 25.3653C101.979 25.3653 101.016 25.9831 100.769 26.8306H100.641V25.5079H98.9936V34.133Z" fill="#24445A"/>
<path d="M108.123 26.791C109.389 26.791 110.217 27.6701 110.257 29.0245H105.878C105.974 27.678 106.857 26.791 108.123 26.791ZM110.249 31.8044C109.93 32.4776 109.222 32.8499 108.187 32.8499C106.818 32.8499 105.934 31.8915 105.878 30.3788V30.2838H112V29.6897C112 26.9811 110.543 25.3416 108.131 25.3416C105.687 25.3416 104.135 27.0919 104.135 29.8482C104.135 32.6044 105.655 34.2993 108.139 34.2993C110.121 34.2993 111.506 33.3489 111.897 31.8044H110.249Z" fill="#24445A"/>
<path d="M73.9206 30.9479C74.0526 33.0658 75.8266 34.4203 78.4669 34.4203C81.2887 34.4203 83.0544 33.0001 83.0544 30.7344C83.0544 28.9531 82.0478 27.968 79.6055 27.4016L78.2936 27.0814C76.7424 26.7202 76.1154 26.2359 76.1154 25.3904C76.1154 24.3232 77.089 23.6254 78.5494 23.6254C79.9356 23.6254 80.8927 24.3068 81.0659 25.3986H82.8647C82.7574 23.4038 80.9917 22 78.5742 22C75.9751 22 74.2424 23.4038 74.2424 25.5135C74.2424 27.2538 75.2243 28.2881 77.3778 28.7889L78.9124 29.1583C80.4884 29.5277 81.1815 30.0695 81.1815 30.9725C81.1815 32.0232 80.0923 32.7867 78.6072 32.7867C77.0147 32.7867 75.9091 32.0725 75.7523 30.9479H73.9206Z" fill="#24445A"/>
<path d="M56.1908 25.3653C55.0126 25.3653 53.9937 25.9514 53.4683 26.9335H53.3409V25.5079H51.6931V37H53.4046V32.8261H53.5399C53.9937 33.7369 54.9728 34.2755 56.2067 34.2755C58.3959 34.2755 59.789 32.5568 59.789 29.8165C59.789 27.0761 58.3959 25.3653 56.1908 25.3653ZM55.7052 32.7469C54.2723 32.7469 53.3728 31.6223 53.3728 29.8244C53.3728 28.0186 54.2723 26.8939 55.7132 26.8939C57.162 26.8939 58.0297 27.9948 58.0297 29.8165C58.0297 31.646 57.162 32.7469 55.7052 32.7469Z" fill="#24445A"/>
<path d="M65.778 25.3653C64.5998 25.3653 63.5808 25.9514 63.0554 26.9335H62.9281V25.5079H61.2802V37H62.9918V32.8261H63.1271C63.5808 33.7369 64.56 34.2755 65.7939 34.2755C67.9831 34.2755 69.3762 32.5568 69.3762 29.8165C69.3762 27.0761 67.9831 25.3653 65.778 25.3653ZM65.2924 32.7469C63.8595 32.7469 62.9599 31.6223 62.9599 29.8244C62.9599 28.0186 63.8595 26.8939 65.3003 26.8939C66.7492 26.8939 67.6169 27.9948 67.6169 29.8165C67.6169 31.646 66.7492 32.7469 65.2924 32.7469Z" fill="#24445A"/>
<path d="M48.6223 34.133H50.586L46.2872 22.2874H44.2988L40 34.133H41.8977L42.9951 30.9889H47.5331L48.6223 34.133ZM45.1981 24.4381H45.3384L47.0628 29.4456H43.4654L45.1981 24.4381Z" fill="#24445A"/>
<path d="M40 12.2607V17.5588H41.9054C43.4781 17.5588 44.3887 16.5858 44.3887 14.8932C44.3887 13.2263 43.4708 12.2607 41.9054 12.2607H40ZM40.8192 13.0097H41.814C42.9075 13.0097 43.5549 13.7073 43.5549 14.9042C43.5549 16.1195 42.9185 16.8098 41.814 16.8098H40.8192V13.0097Z" fill="#24445A"/>
<path d="M47.1778 17.6359C48.3408 17.6359 49.054 16.8538 49.054 15.5578C49.054 14.2691 48.3371 13.4834 47.1778 13.4834C46.0148 13.4834 45.2979 14.2691 45.2979 15.5578C45.2979 16.8538 46.0111 17.6359 47.1778 17.6359ZM47.1778 16.9346C46.4939 16.9346 46.1098 16.4316 46.1098 15.5578C46.1098 14.6913 46.4939 14.1846 47.1778 14.1846C47.858 14.1846 48.2457 14.6913 48.2457 15.5578C48.2457 16.4279 47.858 16.9346 47.1778 16.9346Z" fill="#24445A"/>
<path d="M55.1272 13.5605H54.3409L53.6314 16.6115H53.5692L52.75 13.5605H51.9966L51.1774 16.6115H51.1189L50.4057 13.5605H49.6084L50.7056 17.5588H51.5138L52.3331 14.6142H52.3952L53.2181 17.5588H54.0337L55.1272 13.5605Z" fill="#24445A"/>
<path d="M56.0328 17.5588H56.8191V15.22C56.8191 14.5958 57.1885 14.2066 57.77 14.2066C58.3515 14.2066 58.6294 14.5261 58.6294 15.1686V17.5588H59.4157V14.9703C59.4157 14.0194 58.9257 13.4834 58.037 13.4834C57.4372 13.4834 57.0422 13.7514 56.8483 14.1956H56.7898V13.5605H56.0328V17.5588Z" fill="#24445A"/>
<path d="M60.6541 17.5588H61.4404V12H60.6541V17.5588Z" fill="#24445A"/>
<path d="M64.3977 17.6359C65.5607 17.6359 66.2739 16.8538 66.2739 15.5578C66.2739 14.2691 65.557 13.4834 64.3977 13.4834C63.2347 13.4834 62.5178 14.2691 62.5178 15.5578C62.5178 16.8538 63.231 17.6359 64.3977 17.6359ZM64.3977 16.9346C63.7138 16.9346 63.3298 16.4316 63.3298 15.5578C63.3298 14.6913 63.7138 14.1846 64.3977 14.1846C65.0779 14.1846 65.4656 14.6913 65.4656 15.5578C65.4656 16.4279 65.0779 16.9346 64.3977 16.9346Z" fill="#24445A"/>
<path d="M68.6167 16.9603C68.1888 16.9603 67.878 16.751 67.878 16.3912C67.878 16.0388 68.1266 15.8515 68.6752 15.8148L69.6481 15.7524V16.0865C69.6481 16.5821 69.2092 16.9603 68.6167 16.9603ZM68.4156 17.6249C68.9386 17.6249 69.3738 17.3972 69.6115 16.997H69.6737V17.5588H70.4307V14.8271C70.4307 13.9827 69.8675 13.4834 68.8691 13.4834C67.9657 13.4834 67.322 13.9239 67.2416 14.6105H68.0023C68.0901 14.3278 68.3936 14.1663 68.8325 14.1663C69.3701 14.1663 69.6481 14.4049 69.6481 14.8271V15.1723L68.5692 15.2347C67.6219 15.2934 67.088 15.7083 67.088 16.4279C67.088 17.1586 67.6475 17.6249 68.4156 17.6249Z" fill="#24445A"/>
<path d="M73.0991 17.6249C73.6477 17.6249 74.1121 17.3642 74.3499 16.9273H74.412V17.5588H75.1654V12H74.3791V14.1956H74.3206C74.1048 13.755 73.644 13.4944 73.0991 13.4944C72.0933 13.4944 71.446 14.2948 71.446 15.5578C71.446 16.8245 72.086 17.6249 73.0991 17.6249ZM73.3222 14.203C73.9805 14.203 74.3938 14.728 74.3938 15.5615C74.3938 16.3986 73.9841 16.9163 73.3222 16.9163C72.6565 16.9163 72.2579 16.4059 72.2579 15.5578C72.2579 14.717 72.6602 14.203 73.3222 14.203Z" fill="#24445A"/>
<path d="M80.2644 17.6359C81.4274 17.6359 82.1406 16.8538 82.1406 15.5578C82.1406 14.2691 81.4238 13.4834 80.2644 13.4834C79.1014 13.4834 78.3846 14.2691 78.3846 15.5578C78.3846 16.8538 79.0977 17.6359 80.2644 17.6359ZM80.2644 16.9346C79.5805 16.9346 79.1965 16.4316 79.1965 15.5578C79.1965 14.6913 79.5805 14.1846 80.2644 14.1846C80.9447 14.1846 81.3323 14.6913 81.3323 15.5578C81.3323 16.4279 80.9447 16.9346 80.2644 16.9346Z" fill="#24445A"/>
<path d="M83.1815 17.5588H83.9678V15.22C83.9678 14.5958 84.3372 14.2066 84.9187 14.2066C85.5002 14.2066 85.7781 14.5261 85.7781 15.1686V17.5588H86.5644V14.9703C86.5644 14.0194 86.0744 13.4834 85.1856 13.4834C84.5859 13.4834 84.1909 13.7514 83.997 14.1956H83.9385V13.5605H83.1815V17.5588Z" fill="#24445A"/>
<path d="M90.1859 12.5655V13.5788H89.5532V14.2434H90.1859V16.5014C90.1859 17.2724 90.5333 17.5808 91.4074 17.5808C91.561 17.5808 91.7073 17.5624 91.8353 17.5404V16.8832C91.7256 16.8942 91.6561 16.9016 91.5354 16.9016C91.1441 16.9016 90.9722 16.718 90.9722 16.2994V14.2434H91.8353V13.5788H90.9722V12.5655H90.1859Z" fill="#24445A"/>
<path d="M92.8908 17.5588H93.6771V15.2237C93.6771 14.6179 94.0355 14.2103 94.6792 14.2103C95.2351 14.2103 95.5313 14.5334 95.5313 15.1723V17.5588H96.3177V14.9777C96.3177 14.0267 95.7947 13.487 94.9462 13.487C94.3464 13.487 93.9258 13.755 93.732 14.203H93.6698V12H92.8908V17.5588Z" fill="#24445A"/>
<path d="M99.1542 14.1552C99.7357 14.1552 100.116 14.5628 100.134 15.1906H98.1229C98.1668 14.5665 98.5727 14.1552 99.1542 14.1552ZM100.131 16.4793C99.9844 16.7914 99.6589 16.964 99.1835 16.964C98.5544 16.964 98.1485 16.5197 98.1229 15.8185V15.7744H100.935V15.499C100.935 14.2434 100.266 13.4834 99.1579 13.4834C98.0351 13.4834 97.3219 14.2948 97.3219 15.5725C97.3219 16.8502 98.0205 17.6359 99.1616 17.6359C100.072 17.6359 100.709 17.1953 100.888 16.4793H100.131Z" fill="#24445A"/>
</svg>
