<svg width="131" height="49" viewBox="0 0 131 49" fill="none" xmlns="http://www.w3.org/2000/svg">
<rect x="1.75" y="1" width="127.622" height="46.312" rx="14" stroke="#24445A" stroke-width="2"/>
<g filter="url(#filter0_ii_244_9567)">
<path d="M13.6871 12.2339C13.407 12.5315 13.2415 12.9934 13.2415 13.5915V34.9608C13.2415 35.5599 13.407 36.0208 13.6871 36.3184L13.7583 36.388L25.6825 24.4172V24.2761V24.1351L13.7583 12.1634L13.6871 12.2339Z" fill="url(#paint0_linear_244_9567)"/>
<path d="M29.6562 28.4085L25.6821 24.417V24.2759V24.1349L29.6572 20.1443L29.7467 20.1955L34.4561 22.8816C35.8007 23.6488 35.8007 24.904 34.4561 25.6721L29.7467 28.3583L29.6562 28.4085Z" fill="url(#paint1_linear_244_9567)"/>
<g filter="url(#filter1_i_244_9567)">
<path d="M29.747 28.3573L25.6815 24.2759L13.687 36.3181C14.1298 36.7896 14.8622 36.8476 15.687 36.378L29.747 28.3573Z" fill="url(#paint2_linear_244_9567)"/>
</g>
<path d="M29.747 20.1947L15.687 12.1749C14.8622 11.7044 14.1298 11.7633 13.687 12.2348L25.6824 24.2771L29.747 20.1947Z" fill="url(#paint3_linear_244_9567)"/>
</g>
<path d="M65.708 25.4452C63.5699 25.4452 61.8273 27.0707 61.8273 29.3094C61.8273 31.5345 63.5699 33.1735 65.708 33.1735C67.8469 33.1735 69.5895 31.5345 69.5895 29.3094C69.5886 27.0707 67.846 25.4452 65.708 25.4452ZM65.708 31.6526C64.5362 31.6526 63.5263 30.6868 63.5263 29.3103C63.5263 27.9193 64.5371 26.968 65.708 26.968C66.8797 26.968 67.8896 27.9193 67.8896 29.3103C67.8896 30.6859 66.8797 31.6526 65.708 31.6526ZM57.2412 25.4452C55.1032 25.4452 53.3606 27.0707 53.3606 29.3094C53.3606 31.5345 55.1032 33.1735 57.2412 33.1735C59.3802 33.1735 61.1228 31.5345 61.1228 29.3094C61.1228 27.0707 59.3802 25.4452 57.2412 25.4452ZM57.2412 31.6526C56.0695 31.6526 55.0595 30.6868 55.0595 29.3103C55.0595 27.9193 56.0704 26.968 57.2412 26.968C58.413 26.968 59.4229 27.9193 59.4229 29.3103C59.4238 30.6859 58.413 31.6526 57.2412 31.6526ZM47.171 26.6318V28.2709H51.0962C50.9789 29.1931 50.6716 29.8663 50.2026 30.3343C49.6317 30.9048 48.7381 31.5345 47.171 31.5345C44.7547 31.5345 42.8658 29.5874 42.8658 27.1724C42.8658 24.7574 44.7547 22.8104 47.171 22.8104C48.4745 22.8104 49.4263 23.3228 50.1289 23.9815L51.2861 22.8249C50.3044 21.8882 49.0017 21.1713 47.171 21.1713C43.8612 21.1713 41.0786 23.8643 41.0786 27.1724C41.0786 30.4805 43.8612 33.1735 47.171 33.1735C48.9572 33.1735 50.3053 32.5875 51.3589 31.49C52.4424 30.4069 52.7797 28.8842 52.7797 27.6549C52.7797 27.2751 52.7506 26.9235 52.6915 26.6309L47.171 26.6318ZM88.3574 27.9047C88.0356 27.0416 87.0539 25.4452 85.0476 25.4452C83.0559 25.4452 81.4006 27.0116 81.4006 29.3094C81.4006 31.4754 83.0414 33.1735 85.2376 33.1735C87.0093 33.1735 88.0347 32.0905 88.4601 31.4609L87.142 30.5823C86.703 31.2265 86.1021 31.6508 85.2376 31.6508C84.374 31.6508 83.7586 31.2555 83.3632 30.4796L88.5329 28.3427L88.3574 27.9047ZM83.085 29.1931C83.0414 27.6994 84.2422 26.9389 85.1067 26.9389C85.7803 26.9389 86.3512 27.276 86.5421 27.7584L83.085 29.1931ZM78.8826 32.94H80.5806V21.582H78.8826V32.94ZM76.0991 26.3093H76.0409C75.66 25.855 74.9274 25.4452 74.0056 25.4452C72.0721 25.4452 70.3004 27.1433 70.3004 29.3248C70.3004 31.4909 72.0721 33.1745 74.0056 33.1745C74.9283 33.1745 75.66 32.7647 76.0409 32.2968H76.0991V32.8528C76.0991 34.3311 75.3082 35.1215 74.0347 35.1215C72.9948 35.1215 72.3503 34.3756 72.0866 33.7459L70.6076 34.361C71.0322 35.385 72.1594 36.6443 74.0347 36.6443C76.0264 36.6443 77.7108 35.4731 77.7108 32.6184V25.6805H76.1L76.0991 26.3093ZM74.152 31.6526C72.9802 31.6526 71.9994 30.6713 71.9994 29.3248C71.9994 27.9629 72.9802 26.968 74.152 26.968C75.3083 26.968 76.2164 27.9629 76.2164 29.3248C76.2164 30.6713 75.3083 31.6526 74.152 31.6526ZM96.3151 21.582H92.2508V32.94H93.9461V28.637H96.3142C98.1941 28.637 100.043 27.2769 100.043 25.11C100.043 22.943 98.195 21.582 96.3151 21.582ZM96.3587 27.0561H93.9461V23.1629H96.3587C97.6268 23.1629 98.3468 24.2123 98.3468 25.11C98.3468 25.9895 97.6268 27.0561 96.3587 27.0561ZM106.842 25.4252C105.614 25.4252 104.342 25.9658 103.816 27.1642L105.321 27.7921C105.643 27.1642 106.243 26.9589 106.871 26.9589C107.748 26.9589 108.64 27.485 108.654 28.4199V28.5371C108.347 28.3617 107.689 28.0992 106.885 28.0992C105.263 28.0992 103.61 28.9905 103.61 30.6559C103.61 32.1759 104.941 33.1545 106.432 33.1545C107.572 33.1545 108.201 32.6429 108.595 32.0433H108.653V32.9201H110.291V28.5653C110.292 26.55 108.785 25.4252 106.842 25.4252ZM106.636 31.6499C106.082 31.6499 105.306 31.3718 105.306 30.685C105.306 29.8082 106.272 29.472 107.105 29.472C107.85 29.472 108.202 29.6328 108.654 29.8518C108.522 30.9048 107.616 31.6499 106.636 31.6499ZM116.257 25.6733L114.312 30.5977H114.254L112.236 25.6733H110.409L113.435 32.5557L111.71 36.3844H113.479L118.143 25.6733H116.257ZM100.979 32.94H102.675V21.582H100.979V32.94Z" fill="#24445A"/>
<path d="M41.3718 12.2607V17.5588H43.2773C44.8499 17.5588 45.7606 16.5858 45.7606 14.8932C45.7606 13.2263 44.8426 12.2607 43.2773 12.2607H41.3718ZM42.1911 13.0097H43.1858C44.2794 13.0097 44.9267 13.7073 44.9267 14.9042C44.9267 16.1195 44.2903 16.8098 43.1858 16.8098H42.1911V13.0097Z" fill="#24445A"/>
<path d="M48.5496 17.6359C49.7126 17.6359 50.4258 16.8538 50.4258 15.5578C50.4258 14.269 49.709 13.4833 48.5496 13.4833C47.3866 13.4833 46.6698 14.269 46.6698 15.5578C46.6698 16.8538 47.3829 17.6359 48.5496 17.6359ZM48.5496 16.9346C47.8657 16.9346 47.4817 16.4316 47.4817 15.5578C47.4817 14.6913 47.8657 14.1846 48.5496 14.1846C49.2298 14.1846 49.6175 14.6913 49.6175 15.5578C49.6175 16.4279 49.2298 16.9346 48.5496 16.9346Z" fill="#24445A"/>
<path d="M56.4991 13.5604H55.7127L55.0032 16.6115H54.9411L54.1218 13.5604H53.3684L52.5492 16.6115H52.4907L51.7775 13.5604H50.9802L52.0774 17.5588H52.8857L53.7049 14.6142H53.7671L54.59 17.5588H55.4055L56.4991 13.5604Z" fill="#24445A"/>
<path d="M57.4046 17.5588H58.1909V15.22C58.1909 14.5958 58.5603 14.2066 59.1418 14.2066C59.7233 14.2066 60.0013 14.5261 60.0013 15.1686V17.5588H60.7876V14.9703C60.7876 14.0194 60.2975 13.4833 59.4088 13.4833C58.809 13.4833 58.414 13.7514 58.2202 14.1956H58.1616V13.5604H57.4046V17.5588Z" fill="#24445A"/>
<path d="M62.0259 17.5588H62.8122V12H62.0259V17.5588Z" fill="#24445A"/>
<path d="M65.7695 17.6359C66.9325 17.6359 67.6457 16.8538 67.6457 15.5578C67.6457 14.269 66.9289 13.4833 65.7695 13.4833C64.6065 13.4833 63.8897 14.269 63.8897 15.5578C63.8897 16.8538 64.6028 17.6359 65.7695 17.6359ZM65.7695 16.9346C65.0856 16.9346 64.7016 16.4316 64.7016 15.5578C64.7016 14.6913 65.0856 14.1846 65.7695 14.1846C66.4498 14.1846 66.8374 14.6913 66.8374 15.5578C66.8374 16.4279 66.4498 16.9346 65.7695 16.9346Z" fill="#24445A"/>
<path d="M69.9885 16.9603C69.5606 16.9603 69.2498 16.751 69.2498 16.3912C69.2498 16.0387 69.4985 15.8515 70.0471 15.8148L71.0199 15.7524V16.0865C71.0199 16.5821 70.581 16.9603 69.9885 16.9603ZM69.7874 17.6248C70.3104 17.6248 70.7456 17.3972 70.9833 16.997H71.0455V17.5588H71.8026V14.8271C71.8026 13.9827 71.2393 13.4833 70.2409 13.4833C69.3376 13.4833 68.6939 13.9239 68.6134 14.6105H69.3741C69.4619 14.3278 69.7655 14.1662 70.2043 14.1662C70.7419 14.1662 71.0199 14.4049 71.0199 14.8271V15.1723L69.941 15.2347C68.9938 15.2934 68.4598 15.7083 68.4598 16.4279C68.4598 17.1586 69.0194 17.6248 69.7874 17.6248Z" fill="#24445A"/>
<path d="M74.4709 17.6248C75.0195 17.6248 75.484 17.3642 75.7217 16.9273H75.7839V17.5588H76.5373V12H75.7509V14.1956H75.6924C75.4767 13.755 75.0158 13.4944 74.4709 13.4944C73.4652 13.4944 72.8178 14.2947 72.8178 15.5578C72.8178 16.8244 73.4578 17.6248 74.4709 17.6248ZM74.694 14.203C75.3523 14.203 75.7656 14.728 75.7656 15.5614C75.7656 16.3985 75.356 16.9162 74.694 16.9162C74.0284 16.9162 73.6297 16.4059 73.6297 15.5578C73.6297 14.717 74.032 14.203 74.694 14.203Z" fill="#24445A"/>
<path d="M81.6362 17.6359C82.7993 17.6359 83.5124 16.8538 83.5124 15.5578C83.5124 14.269 82.7956 13.4833 81.6362 13.4833C80.4732 13.4833 79.7564 14.269 79.7564 15.5578C79.7564 16.8538 80.4696 17.6359 81.6362 17.6359ZM81.6362 16.9346C80.9523 16.9346 80.5683 16.4316 80.5683 15.5578C80.5683 14.6913 80.9523 14.1846 81.6362 14.1846C82.3165 14.1846 82.7042 14.6913 82.7042 15.5578C82.7042 16.4279 82.3165 16.9346 81.6362 16.9346Z" fill="#24445A"/>
<path d="M84.5533 17.5588H85.3396V15.22C85.3396 14.5958 85.709 14.2066 86.2905 14.2066C86.872 14.2066 87.15 14.5261 87.15 15.1686V17.5588H87.9363V14.9703C87.9363 14.0194 87.4462 13.4833 86.5575 13.4833C85.9577 13.4833 85.5627 13.7514 85.3689 14.1956H85.3103V13.5604H84.5533V17.5588Z" fill="#24445A"/>
<path d="M91.5577 12.5654V13.5788H90.925V14.2433H91.5577V16.5014C91.5577 17.2724 91.9051 17.5808 92.7792 17.5808C92.9328 17.5808 93.0791 17.5624 93.2071 17.5404V16.8832C93.0974 16.8942 93.0279 16.9016 92.9072 16.9016C92.5159 16.9016 92.344 16.718 92.344 16.2994V14.2433H93.2071V13.5788H92.344V12.5654H91.5577Z" fill="#24445A"/>
<path d="M94.2626 17.5588H95.0489V15.2237C95.0489 14.6178 95.4073 14.2103 96.051 14.2103C96.6069 14.2103 96.9032 14.5334 96.9032 15.1723V17.5588H97.6895V14.9777C97.6895 14.0267 97.1665 13.487 96.318 13.487C95.7182 13.487 95.2976 13.755 95.1038 14.203H95.0416V12H94.2626V17.5588Z" fill="#24445A"/>
<path d="M100.526 14.1552C101.108 14.1552 101.488 14.5628 101.506 15.1906H99.4947C99.5386 14.5664 99.9446 14.1552 100.526 14.1552ZM101.503 16.4793C101.356 16.7914 101.031 16.964 100.555 16.964C99.9263 16.964 99.5203 16.5197 99.4947 15.8184V15.7744H102.307V15.499C102.307 14.2433 101.638 13.4833 100.53 13.4833C99.4069 13.4833 98.6938 14.2947 98.6938 15.5724C98.6938 16.8501 99.3923 17.6359 100.533 17.6359C101.444 17.6359 102.08 17.1953 102.26 16.4793H101.503Z" fill="#24445A"/>
<defs>
<filter id="filter0_ii_244_9567" x="13.2415" y="11.8502" width="22.2231" height="24.8522" filterUnits="userSpaceOnUse" color-interpolation-filters="sRGB">
<feFlood flood-opacity="0" result="BackgroundImageFix"/>
<feBlend mode="normal" in="SourceGraphic" in2="BackgroundImageFix" result="shape"/>
<feColorMatrix in="SourceAlpha" type="matrix" values="0 0 0 0 0 0 0 0 0 0 0 0 0 0 0 0 0 0 127 0" result="hardAlpha"/>
<feOffset dy="-0.795"/>
<feComposite in2="hardAlpha" operator="arithmetic" k2="-1" k3="1"/>
<feColorMatrix type="matrix" values="0 0 0 0 0 0 0 0 0 0 0 0 0 0 0 0 0 0 0.12 0"/>
<feBlend mode="normal" in2="shape" result="effect1_innerShadow_244_9567"/>
<feColorMatrix in="SourceAlpha" type="matrix" values="0 0 0 0 0 0 0 0 0 0 0 0 0 0 0 0 0 0 127 0" result="hardAlpha"/>
<feOffset dy="0.795"/>
<feComposite in2="hardAlpha" operator="arithmetic" k2="-1" k3="1"/>
<feColorMatrix type="matrix" values="0 0 0 0 1 0 0 0 0 1 0 0 0 0 1 0 0 0 0.25 0"/>
<feBlend mode="normal" in2="effect1_innerShadow_244_9567" result="effect2_innerShadow_244_9567"/>
</filter>
<filter id="filter1_i_244_9567" x="13.687" y="24.2759" width="16.0601" height="12.4265" filterUnits="userSpaceOnUse" color-interpolation-filters="sRGB">
<feFlood flood-opacity="0" result="BackgroundImageFix"/>
<feBlend mode="normal" in="SourceGraphic" in2="BackgroundImageFix" result="shape"/>
<feColorMatrix in="SourceAlpha" type="matrix" values="0 0 0 0 0 0 0 0 0 0 0 0 0 0 0 0 0 0 127 0" result="hardAlpha"/>
<feOffset dy="-0.795"/>
<feComposite in2="hardAlpha" operator="arithmetic" k2="-1" k3="1"/>
<feColorMatrix type="matrix" values="0 0 0 0 0 0 0 0 0 0 0 0 0 0 0 0 0 0 0.08 0"/>
<feBlend mode="normal" in2="shape" result="effect1_innerShadow_244_9567"/>
</filter>
<linearGradient id="paint0_linear_244_9567" x1="24.6255" y1="13.3654" x2="8.4102" y2="29.5176" gradientUnits="userSpaceOnUse">
<stop stop-color="#00A0FF"/>
<stop offset="0.0066" stop-color="#00A1FF"/>
<stop offset="0.2601" stop-color="#00BEFF"/>
<stop offset="0.5122" stop-color="#00D2FF"/>
<stop offset="0.7604" stop-color="#00DFFF"/>
<stop offset="1" stop-color="#00E3FF"/>
</linearGradient>
<linearGradient id="paint1_linear_244_9567" x1="36.2064" y1="24.2759" x2="12.9183" y2="24.2759" gradientUnits="userSpaceOnUse">
<stop stop-color="#FFE000"/>
<stop offset="0.4087" stop-color="#FFBD00"/>
<stop offset="0.7754" stop-color="#FFA500"/>
<stop offset="1" stop-color="#FF9C00"/>
</linearGradient>
<linearGradient id="paint2_linear_244_9567" x1="27.5392" y1="26.4923" x2="5.54917" y2="48.3968" gradientUnits="userSpaceOnUse">
<stop stop-color="#FF3A44"/>
<stop offset="1" stop-color="#C31162"/>
</linearGradient>
<linearGradient id="paint3_linear_244_9567" x1="10.6662" y1="5.12119" x2="20.4853" y2="14.9021" gradientUnits="userSpaceOnUse">
<stop stop-color="#32A071"/>
<stop offset="0.0685" stop-color="#2DA771"/>
<stop offset="0.4762" stop-color="#15CF74"/>
<stop offset="0.8009" stop-color="#06E775"/>
<stop offset="1" stop-color="#00F076"/>
</linearGradient>
</defs>
</svg>
